<svg viewBox="0 0 28 28" fill="none" xmlns="http://www.w3.org/2000/svg">
<path fill-rule="evenodd" clip-rule="evenodd" d="M4.38974 4.38968C4.77262 4.00679 5.29193 3.79169 5.83341 3.79169H17.5001C18.0416 3.79169 18.5609 4.00679 18.9438 4.38968C19.3266 4.77256 19.5417 5.29187 19.5417 5.83335V6.12502H22.1667C22.7082 6.12502 23.2275 6.34012 23.6104 6.72301C23.9933 7.1059 24.2084 7.6252 24.2084 8.16669V21C24.2084 21.8509 23.8704 22.667 23.2687 23.2687C22.667 23.8703 21.851 24.2084 21.0001 24.2084H8.16675C7.00643 24.2084 5.89363 23.7474 5.07316 22.9269C4.25268 22.1065 3.79175 20.9937 3.79175 19.8334V5.83335C3.79175 5.29187 4.00685 4.77256 4.38974 4.38968ZM18.1423 22.4584H8.16675C7.47055 22.4584 6.80288 22.1818 6.31059 21.6895C5.81831 21.1972 5.54175 20.5295 5.54175 19.8334V5.83335C5.54175 5.756 5.57248 5.68181 5.62718 5.62711C5.68187 5.57242 5.75606 5.54169 5.83341 5.54169H17.5001C17.5774 5.54169 17.6516 5.57242 17.7063 5.62711C17.761 5.68181 17.7917 5.756 17.7917 5.83335V21C17.7917 21.5118 17.914 22.0109 18.1423 22.4584ZM19.5417 7.87502V21C19.5417 21.3868 19.6954 21.7577 19.9689 22.0312C20.2424 22.3047 20.6133 22.4584 21.0001 22.4584C21.3869 22.4584 21.7578 22.3047 22.0313 22.0312C22.3048 21.7577 22.4584 21.3868 22.4584 21V8.16669C22.4584 8.08933 22.4277 8.01514 22.373 7.96045C22.3183 7.90575 22.2441 7.87502 22.1667 7.87502H19.5417Z"/>
<path fill-rule="evenodd" clip-rule="evenodd" d="M8.45842 9.33335C8.45842 8.8501 8.85017 8.45835 9.33342 8.45835H14.0001C14.4833 8.45835 14.8751 8.8501 14.8751 9.33335C14.8751 9.8166 14.4833 10.2084 14.0001 10.2084H9.33342C8.85017 10.2084 8.45842 9.8166 8.45842 9.33335Z"/>
<path fill-rule="evenodd" clip-rule="evenodd" d="M8.45842 14C8.45842 13.5168 8.85017 13.125 9.33342 13.125H14.0001C14.4833 13.125 14.8751 13.5168 14.8751 14C14.8751 14.4833 14.4833 14.875 14.0001 14.875H9.33342C8.85017 14.875 8.45842 14.4833 8.45842 14Z"/>
<path fill-rule="evenodd" clip-rule="evenodd" d="M8.45842 18.6667C8.45842 18.1834 8.85017 17.7917 9.33342 17.7917H14.0001C14.4833 17.7917 14.8751 18.1834 14.8751 18.6667C14.8751 19.1499 14.4833 19.5417 14.0001 19.5417H9.33342C8.85017 19.5417 8.45842 19.1499 8.45842 18.6667Z"/>
</svg>
