<svg width="28" height="28" viewBox="0 0 28 28" fill="none" xmlns="http://www.w3.org/2000/svg">
<path d="M18.6667 7.00002H22.1667C22.4762 7.00002 22.7729 7.12294 22.9917 7.34173C23.2105 7.56052 23.3334 7.85727 23.3334 8.16669V21C23.3334 21.6189 23.0876 22.2124 22.65 22.6499C22.2124 23.0875 21.6189 23.3334 21.0001 23.3334C20.3812 23.3334 19.7878 23.0875 19.3502 22.6499C18.9126 22.2124 18.6667 21.6189 18.6667 21V5.83335C18.6667 5.52393 18.5438 5.22719 18.325 5.0084C18.1062 4.7896 17.8095 4.66669 17.5001 4.66669H5.83341C5.524 4.66669 5.22725 4.7896 5.00846 5.0084C4.78966 5.22719 4.66675 5.52393 4.66675 5.83335V19.8334C4.66675 20.7616 5.0355 21.6518 5.69187 22.3082C6.34825 22.9646 7.23849 23.3334 8.16675 23.3334H21.0001" stroke="black" stroke-width="1.75" stroke-linecap="round" stroke-linejoin="round"/>
<path d="M9.33325 9.33331H13.9999" stroke="black" stroke-width="1.75" stroke-linecap="round" stroke-linejoin="round"/>
<path d="M9.33325 14H13.9999" stroke="black" stroke-width="1.75" stroke-linecap="round" stroke-linejoin="round"/>
<path d="M9.33325 18.6667H13.9999" stroke="black" stroke-width="1.75" stroke-linecap="round" stroke-linejoin="round"/>
</svg>
