<svg viewBox="0 0 28 28" fill="none" xmlns="http://www.w3.org/2000/svg">
<path fill-rule="evenodd" clip-rule="evenodd" d="M10.4999 13.7083C10.3389 13.7083 10.2083 13.8389 10.2083 14C10.2083 14.1611 10.3389 14.2917 10.4999 14.2917C10.661 14.2917 10.7916 14.1611 10.7916 14C10.7916 13.8389 10.661 13.7083 10.4999 13.7083ZM8.45828 14C8.45828 12.8724 9.37237 11.9583 10.4999 11.9583C11.6275 11.9583 12.5416 12.8724 12.5416 14C12.5416 15.1276 11.6275 16.0417 10.4999 16.0417C9.37237 16.0417 8.45828 15.1276 8.45828 14Z"/>
<path fill-rule="evenodd" clip-rule="evenodd" d="M17.4999 13.7083C17.3389 13.7083 17.2083 13.8389 17.2083 14C17.2083 14.1611 17.3389 14.2917 17.4999 14.2917C17.661 14.2917 17.7916 14.1611 17.7916 14C17.7916 13.8389 17.661 13.7083 17.4999 13.7083ZM15.4583 14C15.4583 12.8724 16.3724 11.9583 17.4999 11.9583C18.6275 11.9583 19.5416 12.8724 19.5416 14C19.5416 15.1276 18.6275 16.0417 17.4999 16.0417C16.3724 16.0417 15.4583 15.1276 15.4583 14Z"/>
<path fill-rule="evenodd" clip-rule="evenodd" d="M13.9999 8.74999C12.5081 8.74999 10.9907 9.0198 8.99033 9.59133C8.52567 9.72408 8.04137 9.45503 7.90861 8.99037C7.77586 8.52572 8.04491 8.04142 8.50957 7.90866C10.5925 7.31352 12.2834 6.99999 13.9999 6.99999C15.7165 6.99999 17.4073 7.31352 19.4903 7.90866C19.955 8.04142 20.224 8.52572 20.0913 8.99037C19.9585 9.45503 19.4742 9.72408 19.0096 9.59133C17.0092 9.0198 15.4918 8.74999 13.9999 8.74999Z"/>
<path fill-rule="evenodd" clip-rule="evenodd" d="M7.32528 19.0096C7.45804 18.545 7.94234 18.2759 8.407 18.4087C12.3332 19.5304 15.6667 19.5304 19.5929 18.4087C20.0576 18.2759 20.5419 18.545 20.6746 19.0096C20.8074 19.4743 20.5383 19.9586 20.0737 20.0913C15.8332 21.3029 12.1667 21.3029 7.92623 20.0913C7.46158 19.9586 7.19252 19.4743 7.32528 19.0096Z"/>
<path fill-rule="evenodd" clip-rule="evenodd" d="M16.6875 4.34169C16.8331 3.97774 17.203 3.75502 17.5928 3.79659C19.4029 3.98968 21.3741 4.39179 23.2501 5.6987C23.4004 5.80342 23.5141 5.95269 23.5751 6.12546C24.7607 9.48486 25.4104 12.4197 25.6618 14.7824C25.9096 17.1109 25.7818 18.9851 25.3123 20.1584C25.3033 20.1809 25.2933 20.2031 25.2825 20.2249C24.86 21.0692 24.2223 22.0313 23.4305 22.7959C22.6516 23.5481 21.6177 24.2083 20.4166 24.2083C20.0883 24.2083 19.822 24.0601 19.6786 23.9687C19.5088 23.8604 19.3462 23.7225 19.199 23.5808C18.9022 23.2949 18.5928 22.9204 18.3144 22.5226C18.0348 22.1232 17.7685 21.675 17.5686 21.233C17.3777 20.811 17.2083 20.3109 17.2083 19.8333C17.2083 19.3501 17.6 18.9583 18.0833 18.9583C18.5665 18.9583 18.9583 19.3501 18.9583 19.8333C18.9583 19.9391 19.0076 20.1682 19.1631 20.5117C19.3095 20.8354 19.5172 21.1893 19.748 21.519C19.98 21.8504 20.2175 22.1321 20.4129 22.3202C20.4736 22.3787 20.5233 22.4214 20.5614 22.4513C21.0733 22.4018 21.639 22.0932 22.2149 21.5371C22.8228 20.95 23.3448 20.1778 23.7003 19.4759C24.0007 18.6944 24.1568 17.1774 23.9217 14.9676C23.6935 12.8229 23.1067 10.1166 22.0201 6.98042C20.762 6.16679 19.4345 5.80961 18.0622 5.61699L17.1457 7.90829C16.9662 8.35698 16.457 8.57522 16.0083 8.39574C15.5596 8.21627 15.3414 7.70704 15.5209 7.25836L16.6875 4.34169ZM20.6404 22.505C20.6404 22.505 20.6363 22.5034 20.6275 22.4981C20.6359 22.502 20.6404 22.505 20.6404 22.505Z"/>
<path fill-rule="evenodd" clip-rule="evenodd" d="M10.4043 3.7969C10.795 3.75394 11.1664 3.97676 11.3124 4.34169L12.479 7.25836C12.6585 7.70704 12.4403 8.21627 11.9916 8.39574C11.5429 8.57522 11.0337 8.35698 10.8542 7.90829L9.93914 5.62064C8.65762 5.81179 7.47133 6.1648 6.29628 6.96548C5.26074 10.1045 4.70119 12.8144 4.48351 14.9632C4.25928 17.1766 4.4076 18.7017 4.69668 19.4903C5.03597 20.1943 5.53326 20.9666 6.1107 21.5521C6.64564 22.0946 7.159 22.3884 7.61157 22.4472C7.63992 22.4216 7.67446 22.3883 7.71485 22.3461C7.89146 22.1612 8.10713 21.8818 8.31841 21.5504C8.52825 21.2213 8.71742 20.8666 8.85118 20.5404C8.99205 20.1969 9.04161 19.9566 9.04161 19.8333C9.04161 19.3501 9.43336 18.9583 9.91661 18.9583C10.3999 18.9583 10.7916 19.3501 10.7916 19.8333C10.7916 20.2933 10.6434 20.7823 10.4703 21.2044C10.2901 21.6438 10.0491 22.0912 9.79399 22.4912C9.54034 22.889 9.2564 23.2659 8.98019 23.555C8.84345 23.6981 8.68949 23.8399 8.52527 23.9525C8.38824 24.0464 8.11999 24.2083 7.77928 24.2083C6.60366 24.2083 5.60467 23.5314 4.86461 22.7809C4.10891 22.0145 3.50211 21.052 3.10083 20.2096C3.09072 20.1884 3.08147 20.1668 3.0731 20.1448C2.62905 18.9791 2.50681 17.1127 2.74242 14.7868C2.9814 12.4278 3.59923 9.49565 4.72734 6.13798C4.78495 5.96652 4.89428 5.81713 5.04029 5.71036C6.83283 4.39953 8.63039 3.99197 10.4043 3.7969ZM7.52031 22.5186C7.52031 22.5186 7.52489 22.5151 7.53353 22.5106C7.52454 22.5167 7.52031 22.5186 7.52031 22.5186Z"/>
</svg>
