<svg width="28" height="28" viewBox="0 0 28 28" fill="none" xmlns="http://www.w3.org/2000/svg">
<path d="M10.4999 15.1667C11.1443 15.1667 11.6666 14.6443 11.6666 14C11.6666 13.3557 11.1443 12.8333 10.4999 12.8333C9.85559 12.8333 9.33325 13.3557 9.33325 14C9.33325 14.6443 9.85559 15.1667 10.4999 15.1667Z" stroke="black" stroke-width="1.75" stroke-linecap="round" stroke-linejoin="round"/>
<path d="M17.4999 15.1667C18.1443 15.1667 18.6666 14.6443 18.6666 14C18.6666 13.3557 18.1443 12.8333 17.4999 12.8333C16.8556 12.8333 16.3333 13.3557 16.3333 14C16.3333 14.6443 16.8556 15.1667 17.4999 15.1667Z" stroke="black" stroke-width="1.75" stroke-linecap="round" stroke-linejoin="round"/>
<path d="M8.75 8.75C12.8333 7.58333 15.1667 7.58333 19.25 8.75" stroke="black" stroke-width="1.75" stroke-linecap="round" stroke-linejoin="round"/>
<path d="M8.16675 19.25C12.2501 20.4167 15.7501 20.4167 19.8334 19.25" stroke="black" stroke-width="1.75" stroke-linecap="round" stroke-linejoin="round"/>
<path d="M18.0833 19.8334C18.0833 21 19.8333 23.3334 20.4166 23.3334C22.1666 23.3334 23.7218 21.3885 24.4999 19.8334C25.2781 17.8885 25.0833 13.0282 22.7499 6.41669C21.0501 5.23252 19.2499 4.85335 17.4999 4.66669L16.3333 7.58335" stroke="black" stroke-width="1.75" stroke-linecap="round" stroke-linejoin="round"/>
<path d="M9.91655 19.8334C9.91655 21 8.33455 23.3334 7.77922 23.3334C6.11205 23.3334 4.63155 21.3885 3.89072 19.8334C3.14989 17.8885 3.33539 13.0282 5.55672 6.41669C7.17605 5.23252 8.80239 4.85335 10.4999 4.66669L11.6666 7.58335" stroke="black" stroke-width="1.75" stroke-linecap="round" stroke-linejoin="round"/>
</svg>
