<svg width="28" height="28" viewBox="0 0 28 28" fill="none" xmlns="http://www.w3.org/2000/svg">
<path d="M5.83333 14H3.5L14 3.5L24.5 14H22.1667" stroke="black" stroke-width="1.8" stroke-linecap="round" stroke-linejoin="round"/>
<path d="M5.83325 14V22.1667C5.83325 22.7855 6.07908 23.379 6.51667 23.8166C6.95425 24.2542 7.54775 24.5 8.16658 24.5H19.8332C20.4521 24.5 21.0456 24.2542 21.4832 23.8166C21.9207 23.379 22.1666 22.7855 22.1666 22.1667V14" stroke="black" stroke-width="1.8" stroke-linecap="round" stroke-linejoin="round"/>
<path d="M10.5 24.5V17.5C10.5 16.8812 10.7458 16.2877 11.1834 15.8501C11.621 15.4125 12.2145 15.1667 12.8333 15.1667H15.1667C15.7855 15.1667 16.379 15.4125 16.8166 15.8501C17.2542 16.2877 17.5 16.8812 17.5 17.5V24.5" stroke="black" stroke-width="1.8" stroke-linecap="round" stroke-linejoin="round"/>
</svg>
