<svg viewBox="0 0 28 28" fill="none" xmlns="http://www.w3.org/2000/svg">
<path fill-rule="evenodd" clip-rule="evenodd" d="M13.3635 2.86358C13.715 2.51211 14.2848 2.51211 14.6363 2.86358L25.1363 13.3636C25.3937 13.621 25.4707 14.0081 25.3314 14.3444C25.1921 14.6807 24.8639 14.9 24.4999 14.9H22.1665C21.6695 14.9 21.2665 14.497 21.2665 14C21.2665 13.5029 21.6695 13.1 22.1665 13.1H22.3271L13.9999 4.77277L5.67267 13.1H5.83321C6.33027 13.1 6.73321 13.5029 6.73321 14C6.73321 14.497 6.33027 14.9 5.83321 14.9H3.49988C3.13586 14.9 2.80769 14.6807 2.66839 14.3444C2.52909 14.0081 2.60609 13.621 2.86348 13.3636L13.3635 2.86358Z"/>
<path fill-rule="evenodd" clip-rule="evenodd" d="M5.83321 13.1C6.33027 13.1 6.73321 13.5029 6.73321 14L6.73321 22.1666C6.73321 22.5468 6.88423 22.9114 7.15303 23.1802C7.42183 23.449 7.7864 23.6 8.16655 23.6H19.8332C20.2134 23.6 20.5779 23.449 20.8467 23.1802C21.1155 22.9114 21.2665 22.5468 21.2665 22.1666L21.2665 14C21.2665 13.5029 21.6695 13.1 22.1665 13.1C22.6636 13.1 23.0665 13.5029 23.0665 14V22.1666C23.0665 23.0242 22.7259 23.8466 22.1195 24.453C21.5132 25.0593 20.6907 25.4 19.8332 25.4H8.16655C7.30901 25.4 6.4866 25.0593 5.88024 24.453C5.27387 23.8466 4.93321 23.0242 4.93321 22.1666V14C4.93321 13.5029 5.33616 13.1 5.83321 13.1Z" />
<path fill-rule="evenodd" clip-rule="evenodd" d="M12.8332 16.0666C12.4531 16.0666 12.0885 16.2177 11.8197 16.4865C11.5509 16.7553 11.3999 17.1198 11.3999 17.5V24.5C11.3999 24.997 10.9969 25.4 10.4999 25.4C10.0028 25.4 9.59988 24.997 9.59988 24.5V17.5C9.59988 16.6424 9.94053 15.82 10.5469 15.2137C11.1533 14.6073 11.9757 14.2666 12.8332 14.2666H15.1665C16.0241 14.2666 16.8465 14.6073 17.4529 15.2137C18.0592 15.82 18.3999 16.6424 18.3999 17.5V24.5C18.3999 24.997 17.9969 25.4 17.4999 25.4C17.0028 25.4 16.5999 24.997 16.5999 24.5V17.5C16.5999 17.1198 16.4489 16.7553 16.1801 16.4865C15.9113 16.2177 15.5467 16.0666 15.1665 16.0666H12.8332Z" />
</svg>
