<svg viewBox="0 0 18 18" fill="none" xmlns="http://www.w3.org/2000/svg">
<path fill-rule="evenodd" clip-rule="evenodd" d="M2.5 8.875C2.5 8.39175 2.89175 8 3.375 8H15.0417C15.5249 8 15.9167 8.39175 15.9167 8.875C15.9167 9.35825 15.5249 9.75 15.0417 9.75H3.375C2.89175 9.75 2.5 9.35825 2.5 8.875Z"/>
<path fill-rule="evenodd" clip-rule="evenodd" d="M2.75628 8.25628C3.09799 7.91457 3.65201 7.91457 3.99372 8.25628L8.99372 13.2563C9.33543 13.598 9.33543 14.152 8.99372 14.4937C8.65201 14.8354 8.09799 14.8354 7.75628 14.4937L2.75628 9.49372C2.41457 9.15201 2.41457 8.59799 2.75628 8.25628Z"/>
<path fill-rule="evenodd" clip-rule="evenodd" d="M8.99372 3.25628C9.33543 3.59799 9.33543 4.15201 8.99372 4.49372L3.99372 9.49372C3.65201 9.83543 3.09799 9.83543 2.75628 9.49372C2.41457 9.15201 2.41457 8.59799 2.75628 8.25628L7.75628 3.25628C8.09799 2.91457 8.65201 2.91457 8.99372 3.25628Z"/>
</svg>
