<svg viewBox="0 0 14 12" fill="none" xmlns="http://www.w3.org/2000/svg">
<path fill-rule="evenodd" clip-rule="evenodd" d="M0.125 6C0.125 5.51675 0.516751 5.125 1 5.125H12.6667C13.1499 5.125 13.5417 5.51675 13.5417 6C13.5417 6.48325 13.1499 6.875 12.6667 6.875H1C0.516751 6.875 0.125 6.48325 0.125 6Z"/>
<path fill-rule="evenodd" clip-rule="evenodd" d="M0.381282 5.38128C0.72299 5.03957 1.27701 5.03957 1.61872 5.38128L6.61872 10.3813C6.96043 10.723 6.96043 11.277 6.61872 11.6187C6.27701 11.9604 5.72299 11.9604 5.38128 11.6187L0.381282 6.61872C0.0395728 6.27701 0.0395728 5.72299 0.381282 5.38128Z"/>
<path fill-rule="evenodd" clip-rule="evenodd" d="M6.61872 0.381282C6.96043 0.72299 6.96043 1.27701 6.61872 1.61872L1.61872 6.61872C1.27701 6.96043 0.72299 6.96043 0.381282 6.61872C0.0395728 6.27701 0.0395728 5.72299 0.381282 5.38128L5.38128 0.381282C5.72299 0.0395728 6.27701 0.0395728 6.61872 0.381282Z"/>
</svg>
