<svg viewBox="0 0 28 28" fill="none" xmlns="http://www.w3.org/2000/svg">
<path fill-rule="evenodd" clip-rule="evenodd" d="M3.5647 4.73139C4.16638 4.12971 4.98243 3.79169 5.83333 3.79169H14C14.8509 3.79169 15.667 4.12971 16.2686 4.73139C16.8703 5.33306 17.2083 6.14912 17.2083 7.00002V9.33335C17.2083 9.8166 16.8166 10.2084 16.3333 10.2084C15.8501 10.2084 15.4583 9.8166 15.4583 9.33335V7.00002C15.4583 6.61325 15.3047 6.24231 15.0312 5.96882C14.7577 5.69533 14.3868 5.54169 14 5.54169H5.83333C5.44656 5.54169 5.07563 5.69533 4.80214 5.96882C4.52865 6.24231 4.375 6.61325 4.375 7.00002V21C4.375 21.3868 4.52865 21.7577 4.80214 22.0312C5.07563 22.3047 5.44656 22.4584 5.83333 22.4584H14C14.3868 22.4584 14.7577 22.3047 15.0312 22.0312C15.3047 21.7577 15.4583 21.3868 15.4583 21V18.6667C15.4583 18.1834 15.8501 17.7917 16.3333 17.7917C16.8166 17.7917 17.2083 18.1834 17.2083 18.6667V21C17.2083 21.8509 16.8703 22.667 16.2686 23.2687C15.667 23.8703 14.8509 24.2084 14 24.2084H5.83333C4.98243 24.2084 4.16638 23.8703 3.5647 23.2687C2.96302 22.667 2.625 21.8509 2.625 21V7.00002C2.625 6.14912 2.96302 5.33307 3.5647 4.73139Z"/>
<path fill-rule="evenodd" clip-rule="evenodd" d="M20.3813 9.8813C20.723 9.53959 21.277 9.53959 21.6187 9.8813L25.1187 13.3813C25.4604 13.723 25.4604 14.277 25.1187 14.6187L21.6187 18.1187C21.277 18.4604 20.723 18.4604 20.3813 18.1187C20.0396 17.777 20.0396 17.223 20.3813 16.8813L22.3876 14.875H8.16667C7.68342 14.875 7.29167 14.4833 7.29167 14C7.29167 13.5168 7.68342 13.125 8.16667 13.125H22.3876L20.3813 11.1187C20.0396 10.777 20.0396 10.223 20.3813 9.8813Z"/>
</svg>
